<svg width="272" height="23" viewBox="0 0 272 23" fill="none" xmlns="http://www.w3.org/2000/svg">
<path d="M126.357 11.3301V10.4512C126.357 8.20508 126.917 6.48633 128.036 5.29492C129.156 4.09701 130.598 3.49805 132.363 3.49805C134.127 3.49805 135.569 4.09701 136.689 5.29492C137.815 6.48633 138.378 8.20508 138.378 10.4512V11.3301C138.378 13.5762 137.815 15.2982 136.689 16.4961C135.569 17.6875 134.127 18.2832 132.363 18.2832C130.598 18.2832 129.156 17.6875 128.036 16.4961C126.917 15.2982 126.357 13.5762 126.357 11.3301ZM128.603 11.457C128.603 13.0911 128.945 14.3411 129.628 15.207C130.312 16.0664 131.223 16.4961 132.363 16.4961C133.502 16.4961 134.417 16.0664 135.107 15.207C135.797 14.3411 136.142 13.0911 136.142 11.457V10.334C136.142 8.69336 135.797 7.44336 135.107 6.58398C134.417 5.7181 133.502 5.28516 132.363 5.28516C131.223 5.28516 130.312 5.7181 129.628 6.58398C128.945 7.44336 128.603 8.69336 128.603 10.334V11.457ZM141.151 18V7.90234H143.134L143.202 9.15234H143.251C143.498 8.73568 143.824 8.3776 144.227 8.07812C144.631 7.77214 145.106 7.61914 145.653 7.61914C145.79 7.61914 145.933 7.63542 146.083 7.66797C146.239 7.70052 146.35 7.72982 146.415 7.75586V9.65039C146.291 9.61784 146.158 9.59505 146.014 9.58203C145.871 9.56901 145.718 9.5625 145.555 9.5625C145.028 9.5625 144.566 9.70898 144.169 10.002C143.772 10.2949 143.479 10.6628 143.29 11.1055V18H141.151Z" fill="#6B7280"/>
<line y1="12.5" x2="103" y2="12.5" stroke="#6B7280"/>
<line x1="169" y1="12.5" x2="272" y2="12.5" stroke="#6B7280"/>
</svg>
