<svg width="152" height="152" viewBox="0 0 152 152" fill="none" xmlns="http://www.w3.org/2000/svg">
<g clip-path="url(#clip0_38_2014)">
<path d="M151.341 85.0713C149.907 79.319 149.906 72.6741 151.339 66.9215C151.375 66.7765 151.41 66.6309 151.443 66.485C152.243 62.9717 152.174 59.3163 151.241 55.8359C150.308 52.3554 148.54 49.1551 146.091 46.5126C145.989 46.4022 145.885 46.293 145.781 46.1848C141.664 41.9208 138.342 36.1676 136.708 30.4701C136.666 30.3255 136.623 30.1812 136.579 30.0373C135.515 26.5946 133.627 23.4636 131.078 20.9158C128.53 18.368 125.399 16.4804 121.956 15.4168C121.814 15.3728 121.671 15.3302 121.528 15.2892C115.829 13.6537 110.073 10.3297 105.807 6.21132C105.7 6.10769 105.592 6.00508 105.482 5.90352C102.84 3.45343 99.6388 1.68541 96.1579 0.752947C92.677 -0.179515 89.0211 -0.248228 85.5076 0.552772C85.362 0.585969 85.2168 0.620618 85.0721 0.656709C79.3189 2.09127 72.6725 2.09304 66.9188 0.66049C66.7745 0.624549 66.6297 0.590042 66.4844 0.556979C62.9711 -0.242915 59.3157 -0.173524 55.8353 0.759129C52.3549 1.69178 49.1546 3.45953 46.512 5.90902C46.4012 6.0117 46.2916 6.11545 46.1831 6.22024C41.9199 10.3372 36.1679 13.6589 30.4712 15.2936C30.3264 15.3352 30.1819 15.3782 30.0378 15.4228C26.5956 16.4871 23.465 18.3752 20.9176 20.9232C18.3702 23.4713 16.483 26.6023 15.4195 30.0448C15.3753 30.1881 15.3325 30.3317 15.2912 30.4757C13.6569 36.1737 10.3351 41.9276 6.21784 46.1921C6.11367 46.3 6.01053 46.409 5.90845 46.5192C3.45896 49.1617 1.6912 52.362 0.758546 55.8424C-0.174108 59.3229 -0.243509 62.9783 0.556385 66.4916C0.589698 66.6379 0.624478 66.7838 0.660712 66.9292C2.09379 72.6812 2.0932 79.3254 0.65957 85.0773C0.623226 85.2231 0.588345 85.3694 0.554938 85.5161C-0.245184 89.0298 -0.175723 92.6856 0.757339 96.1663C1.6904 99.6471 3.45884 102.847 5.90917 105.49C6.01039 105.599 6.11265 105.707 6.21592 105.814C10.3349 110.08 13.6589 115.837 15.295 121.536C15.336 121.679 15.3783 121.821 15.4221 121.963C16.4857 125.406 18.3735 128.537 20.9215 131.084C23.4695 133.632 26.6008 135.519 30.0436 136.582C30.1862 136.627 30.3291 136.669 30.4723 136.71C36.1715 138.345 41.9277 141.667 46.1937 145.784C46.3009 145.888 46.4092 145.99 46.5186 146.092C49.1612 148.541 52.3615 150.309 55.8419 151.241C59.3223 152.174 62.9777 152.243 66.491 151.444C66.6373 151.41 66.7832 151.375 66.9287 151.339C72.6807 149.906 79.3249 149.907 85.0768 151.34C85.2226 151.377 85.3689 151.412 85.5156 151.445C89.0292 152.245 92.685 152.176 96.1658 151.243C99.6465 150.31 102.847 148.541 105.489 146.091C105.599 145.989 105.707 145.887 105.814 145.784C110.08 141.665 115.836 138.341 121.535 136.705C121.678 136.664 121.82 136.621 121.963 136.578C125.405 135.514 128.536 133.626 131.084 131.078C133.632 128.53 135.52 125.399 136.584 121.957C136.628 121.814 136.67 121.67 136.712 121.527C138.347 115.828 141.669 110.073 145.787 105.808C145.89 105.7 145.993 105.591 146.095 105.482C148.545 102.839 150.312 99.6385 151.245 96.1578C152.177 92.6772 152.246 89.0216 151.445 85.5083C151.412 85.3622 151.377 85.2165 151.341 85.0713Z" fill="#368ABB"/>
<path d="M62.3576 105.008L41.2381 83.9018C40.4365 83.099 39.9863 82.0109 39.9863 80.8765C39.9863 79.7421 40.4365 78.654 41.2381 77.8512L43.8039 75.2821C44.6067 74.4805 45.6948 74.0304 46.8292 74.0304C47.9636 74.0304 49.0517 74.4805 49.8545 75.2821L65.2067 90.6243L101.362 52.2028C102.14 51.3773 103.214 50.8942 104.348 50.8597C105.481 50.8251 106.583 51.2418 107.41 52.0183L110.045 54.5051C110.871 55.2832 111.355 56.3576 111.389 57.4922C111.424 58.6268 111.007 59.7287 110.229 60.5557L68.5103 104.913C68.1175 105.331 67.6446 105.667 67.1195 105.899C66.5945 106.131 66.0282 106.255 65.4542 106.264C64.8802 106.273 64.3103 106.166 63.7783 105.951C63.2463 105.735 62.7632 105.414 62.3576 105.008Z" fill="white"/>
</g>
<defs>
<clipPath id="clip0_38_2014">
<rect width="152" height="152" fill="white"/>
</clipPath>
</defs>
</svg>
