<svg width="24" height="28" viewBox="0 0 24 28" fill="none" xmlns="http://www.w3.org/2000/svg">
<path d="M19.9966 26.8766C18.4459 28.3542 16.7527 28.1209 15.1229 27.421C13.3981 26.7055 11.8157 26.6744 9.99598 27.421C7.71736 28.3853 6.51476 28.1053 5.15392 26.8766C-2.56807 19.0532 -1.42876 7.1391 7.3376 6.7036C9.4738 6.81247 10.9612 7.85456 12.2113 7.94789C14.0785 7.5746 15.8666 6.5014 17.8604 6.64138C20.2498 6.82803 22.0537 7.76124 23.2405 9.44103C18.3035 12.3496 19.4744 18.7421 24 20.5307C23.098 22.8638 21.9271 25.1813 19.9808 26.8922L19.9966 26.8766ZM12.0531 6.61028C11.8157 3.14183 14.6798 0.279965 17.9712 0C18.43 4.01283 14.2684 6.99912 12.0531 6.61028Z" fill="#34312F"/>
</svg>
