<svg width="38" height="38" viewBox="0 0 38 38" fill="none" xmlns="http://www.w3.org/2000/svg">
<path d="M18.6665 0.666992C8.72538 0.666992 0.666504 8.72587 0.666504 18.667C0.666504 28.6081 8.72538 36.667 18.6665 36.667C28.6076 36.667 36.6665 28.6081 36.6665 18.667C36.6665 8.72587 28.6076 0.666992 18.6665 0.666992Z" fill="#D7AB42" fill-opacity="0.2"/>
<path d="M20.6665 12.667L14.6665 18.667L20.6665 24.667M0.666504 18.667C0.666504 8.72587 8.72538 0.666992 18.6665 0.666992C28.6076 0.666992 36.6665 8.72587 36.6665 18.667C36.6665 28.6081 28.6076 36.667 18.6665 36.667C8.72538 36.667 0.666504 28.6081 0.666504 18.667Z" stroke="#C69C3F" stroke-width="1.33333" stroke-linecap="round" stroke-linejoin="round"/>
</svg>
