<svg width="58" height="60" viewBox="0 0 58 60" fill="none" xmlns="http://www.w3.org/2000/svg">
<path d="M23.0513 20.7264H37.6239V22.0512H24.3761V23.376M24.3761 23.376H38.9487M24.3761 23.376H23.0513M37.6239 40.5982V32.6495M37.6239 29.9999V27.3503M31 35.299V32.6495M31 29.9999V27.3503M31 37.9486V40.5982M24.3761 40.5982V37.9486M24.3761 35.299V32.6495M24.3761 29.9999V27.3503M42.9231 16.752V43.2478C42.9231 43.5991 42.7835 43.9361 42.535 44.1845C42.2866 44.433 41.9496 44.5725 41.5983 44.5725H20.4017C20.0503 44.5725 19.7134 44.433 19.4649 44.1845C19.2165 43.9361 19.0769 43.5991 19.0769 43.2478V16.752C19.0769 16.4007 19.2165 16.0637 19.4649 15.8153C19.7134 15.5668 20.0503 15.4272 20.4017 15.4272H41.5983C41.9496 15.4272 42.2866 15.5668 42.535 15.8153C42.7835 16.0637 42.9231 16.4007 42.9231 16.752Z" stroke="#C7C7C7" stroke-width="2.38462"/>
</svg>
