<svg width="36" height="85" viewBox="0 0 36 85" fill="none" xmlns="http://www.w3.org/2000/svg">
<mask id="path-1-inside-1_298_12939" fill="white">
<path d="M0 0H36V85H0V0Z"/>
</mask>
<path d="M36 0H35.5V85H36H36.5V0H36Z" fill="#E6E7E8" mask="url(#path-1-inside-1_298_12939)"/>
<path d="M8 33.1666H22.6667V34.4999H9.33333V35.8333M9.33333 35.8333H24M9.33333 35.8333H8M22.6667 53.1666V45.1666M22.6667 42.4999V39.8333M16 47.8333V45.1666M16 42.4999V39.8333M16 50.4999V53.1666M9.33333 53.1666V50.4999M9.33333 47.8333V45.1666M9.33333 42.4999V39.8333M28 29.1666V55.8333C28 56.1869 27.8595 56.526 27.6095 56.7761C27.3594 57.0261 27.0203 57.1666 26.6667 57.1666H5.33333C4.97971 57.1666 4.64057 57.0261 4.39052 56.7761C4.14048 56.526 4 56.1869 4 55.8333V29.1666C4 28.813 4.14048 28.4738 4.39052 28.2238C4.64057 27.9737 4.97971 27.8333 5.33333 27.8333H26.6667C27.0203 27.8333 27.3594 27.9737 27.6095 28.2238C27.8595 28.4738 28 28.813 28 29.1666Z" stroke="#C69C3F" stroke-width="2"/>
</svg>
