<svg width="19" height="23" viewBox="0 0 19 23" fill="none" xmlns="http://www.w3.org/2000/svg">
<path d="M3.85893 4.82875H13.6367V5.73784H4.74782V6.64693M4.74782 6.64693H14.5256M4.74782 6.64693H3.85893M13.6367 18.4651V13.0106M13.6367 11.1924V9.3742M9.19226 14.8287V13.0106M9.19226 11.1924V9.3742M9.19226 16.6469V18.4651M4.74782 18.4651V16.6469M4.74782 14.8287V13.0106M4.74782 11.1924V9.3742M17.1923 2.10147V20.2833C17.1923 20.5244 17.0986 20.7556 16.9319 20.9261C16.7652 21.0966 16.5391 21.1924 16.3034 21.1924H2.08115C1.8454 21.1924 1.61931 21.0966 1.45261 20.9261C1.28591 20.7556 1.19226 20.5244 1.19226 20.2833V2.10147C1.19226 1.86037 1.28591 1.62914 1.45261 1.45865C1.61931 1.28816 1.8454 1.19238 2.08115 1.19238H16.3034C16.5391 1.19238 16.7652 1.28816 16.9319 1.45865C17.0986 1.62914 17.1923 1.86037 17.1923 2.10147Z" stroke="#34312F" stroke-width="2.38462"/>
</svg>
