<svg width="28" height="28" viewBox="0 0 28 28" fill="none" xmlns="http://www.w3.org/2000/svg">
<path d="M7 14.1212C6.76794 14.1212 6.54538 14.2134 6.38128 14.3775C6.21719 14.5415 6.125 14.7641 6.125 14.9962C6.125 19.4202 9.63083 23.0415 14 23.0415C18.3692 23.0415 21.875 19.4202 21.875 14.9962C21.875 11.3737 19.5242 8.28901 16.2738 7.29034L17.4638 6.58684C17.6637 6.46879 17.8085 6.27618 17.8664 6.05137C17.9243 5.82656 17.8905 5.58797 17.7724 5.38809C17.6544 5.1882 17.4618 5.0434 17.237 4.98553C17.0121 4.92766 16.7736 4.96146 16.5737 5.0795L13.3595 6.98117C13.1623 7.09762 13.0187 7.28672 12.9593 7.50789C12.9 7.72906 12.9297 7.96468 13.0422 8.16417L14.8983 11.4565C14.9548 11.5566 15.0304 11.6446 15.1209 11.7155C15.2114 11.7864 15.3149 11.8388 15.4256 11.8697C15.5364 11.9006 15.6521 11.9093 15.7662 11.8955C15.8803 11.8816 15.9905 11.8455 16.0907 11.789C16.1908 11.7325 16.2788 11.6569 16.3497 11.5664C16.4206 11.476 16.473 11.3724 16.5039 11.2617C16.5347 11.151 16.5435 11.0353 16.5297 10.9212C16.5158 10.8071 16.4796 10.6968 16.4232 10.5967L15.4548 8.87934C18.1242 9.549 20.125 12.0188 20.125 14.995C20.125 18.4927 17.3635 21.2915 14 21.2915C10.6365 21.2915 7.875 18.4927 7.875 14.9962C7.875 14.7641 7.78281 14.5415 7.61872 14.3775C7.45463 14.2134 7.23207 14.1212 7 14.1212Z" fill="white"/>
</svg>
