<svg width="60" height="60" viewBox="0 0 60 60" fill="none" xmlns="http://www.w3.org/2000/svg">
<rect x="1" y="1" width="58" height="58" rx="29" fill="#D9F2F8"/>
<rect x="1" y="1" width="58" height="58" rx="29" stroke="#29ABE2" stroke-width="2"/>
<path d="M36.7424 29.3194C36.5482 29.1225 36.2837 29.0108 36.0072 29.0088C35.7306 29.0069 35.4646 29.1149 35.2677 29.309C35.0707 29.5032 34.959 29.7677 34.9571 30.0442C34.9551 30.3208 35.0631 30.5868 35.2573 30.7837L39.1206 34.6886H20.5415C20.266 34.6886 20.0019 34.798 19.8071 34.9928C19.6123 35.1875 19.5029 35.4517 19.5029 35.7271C19.5029 36.0025 19.6123 36.2667 19.8071 36.4614C20.0019 36.6562 20.266 36.7656 20.5415 36.7656H39.1206L35.2573 40.6082C35.1611 40.705 35.085 40.8198 35.0332 40.9461C34.9815 41.0723 34.9551 41.2075 34.9555 41.344C34.956 41.4804 34.9834 41.6155 35.036 41.7413C35.0887 41.8672 35.1657 41.9815 35.2625 42.0777C35.3593 42.1738 35.4741 42.2499 35.6004 42.3017C35.7266 42.3535 35.8619 42.3799 35.9983 42.3794C36.1348 42.3789 36.2698 42.3516 36.3957 42.2989C36.5216 42.2462 36.6358 42.1693 36.732 42.0725L43.0774 35.7271L36.7424 29.3194Z" fill="#2DA8F0"/>
<path d="M26.1599 31.002C26.3661 31.0032 26.5681 30.943 26.74 30.829C26.9119 30.7149 27.0459 30.5523 27.125 30.3618C27.2041 30.1713 27.2247 29.9615 27.1841 29.7593C27.1436 29.557 27.0437 29.3714 26.8972 29.2262L23.0443 25.3421H41.6131C41.8885 25.3421 42.1526 25.2327 42.3474 25.0379C42.5422 24.8432 42.6516 24.579 42.6516 24.3036C42.6516 24.0281 42.5422 23.764 42.3474 23.5692C42.1526 23.3745 41.8885 23.2651 41.6131 23.2651H23.0443L26.8972 19.3914C26.9934 19.2945 27.0695 19.1797 27.1213 19.0535C27.173 18.9272 27.1994 18.792 27.199 18.6556C27.1985 18.5191 27.1711 18.3841 27.1185 18.2582C27.0658 18.1323 26.9888 18.018 26.892 17.9219C26.7952 17.8257 26.6804 17.7496 26.5541 17.6978C26.4279 17.646 26.2926 17.6196 26.1562 17.6201C25.8806 17.6211 25.6167 17.7315 25.4225 17.9271L19.0771 24.3036L25.4225 30.6801C25.5178 30.7801 25.6321 30.8601 25.7587 30.9154C25.8854 30.9707 26.0217 31.0001 26.1599 31.002Z" fill="#2DA8F0"/>
</svg>
