<svg width="38" height="85" viewBox="0 0 38 85" fill="none" xmlns="http://www.w3.org/2000/svg">
<mask id="path-1-inside-1_298_12950" fill="white">
<path d="M0 0H38V85H0V0Z"/>
</mask>
<path d="M0 85H0.5V0H0H-0.5V85H0Z" fill="#E6E7E8" mask="url(#path-1-inside-1_298_12950)"/>
<path d="M27.137 41.763C26.9266 41.5497 26.6401 41.4287 26.3405 41.4265C26.0409 41.4244 25.7528 41.5414 25.5394 41.7518C25.3261 41.9621 25.205 42.2486 25.2029 42.5483C25.2008 42.8479 25.3178 43.136 25.5282 43.3494L29.7134 47.5796H9.586C9.28762 47.5796 9.00145 47.6981 8.79046 47.9091C8.57947 48.1201 8.46094 48.4063 8.46094 48.7047C8.46094 49.0031 8.57947 49.2892 8.79046 49.5002C9.00145 49.7112 9.28762 49.8297 9.586 49.8297H29.7134L25.5282 53.9925C25.424 54.0974 25.3415 54.2218 25.2854 54.3585C25.2293 54.4953 25.2007 54.6418 25.2013 54.7896C25.2018 54.9374 25.2314 55.0837 25.2885 55.2201C25.3455 55.3565 25.4289 55.4803 25.5338 55.5844C25.6387 55.6886 25.7631 55.7711 25.8999 55.8272C26.0366 55.8832 26.1831 55.9118 26.3309 55.9113C26.4788 55.9108 26.625 55.8812 26.7614 55.8241C26.8978 55.7671 27.0216 55.6837 27.1258 55.5788L33.9999 48.7047L27.137 41.763Z" fill="#C69C3F"/>
<path d="M15.6729 43.5857C15.8964 43.587 16.1152 43.5217 16.3014 43.3982C16.4876 43.2746 16.6328 43.0984 16.7185 42.8921C16.8042 42.6857 16.8265 42.4584 16.7826 42.2393C16.7386 42.0202 16.6304 41.8192 16.4717 41.6618L12.2977 37.4541H32.4139C32.7123 37.4541 32.9984 37.3356 33.2094 37.1246C33.4204 36.9136 33.539 36.6274 33.539 36.329C33.539 36.0306 33.4204 35.7445 33.2094 35.5335C32.9984 35.3225 32.7123 35.204 32.4139 35.204H12.2977L16.4717 31.0075C16.5759 30.9026 16.6584 30.7782 16.7145 30.6414C16.7706 30.5047 16.7992 30.3582 16.7986 30.2103C16.7981 30.0625 16.7685 29.9162 16.7114 29.7799C16.6544 29.6435 16.571 29.5197 16.4661 29.4155C16.3612 29.3114 16.2368 29.2289 16.1 29.1728C15.9633 29.1167 15.8168 29.0881 15.669 29.0886C15.3704 29.0897 15.0845 29.2093 14.8741 29.4211L8 36.329L14.8741 43.2369C14.9774 43.3453 15.1012 43.4319 15.2384 43.4918C15.3756 43.5517 15.5233 43.5836 15.6729 43.5857Z" fill="#C69C3F"/>
</svg>
