<svg width="28" height="28" viewBox="0 0 28 28" fill="none" xmlns="http://www.w3.org/2000/svg">
<path d="M13.5623 18.0983C13.4262 18.0493 13.2998 17.9665 13.1832 17.8498L8.98317 13.6498C8.74984 13.4165 8.63784 13.1443 8.64717 12.8332C8.6565 12.5221 8.7685 12.2498 8.98317 12.0165C9.2165 11.7832 9.49378 11.6618 9.815 11.6525C10.1362 11.6432 10.4131 11.7548 10.6457 11.9873L12.8332 14.1748V5.83317C12.8332 5.50262 12.9452 5.22573 13.1692 5.00251C13.3932 4.77929 13.6701 4.66729 13.9998 4.66651C14.3296 4.66573 14.6069 4.77773 14.8317 5.00251C15.0564 5.22729 15.1681 5.50417 15.1665 5.83317V14.1748L17.354 11.9873C17.5873 11.754 17.8646 11.642 18.1858 11.6513C18.5071 11.6607 18.7839 11.7824 19.0165 12.0165C19.2304 12.2498 19.3424 12.5221 19.3525 12.8332C19.3626 13.1443 19.2506 13.4165 19.0165 13.6498L14.8165 17.8498C14.6998 17.9665 14.5734 18.0493 14.4373 18.0983C14.3012 18.1473 14.1554 18.1715 13.9998 18.1707C13.8443 18.1699 13.6984 18.1458 13.5623 18.0983ZM6.99984 23.3332C6.35817 23.3332 5.80906 23.1049 5.3525 22.6483C4.89595 22.1918 4.66728 21.6423 4.6665 20.9998V18.6665C4.6665 18.336 4.7785 18.0591 5.0025 17.8358C5.2265 17.6126 5.50339 17.5006 5.83317 17.4998C6.16295 17.4991 6.44023 17.6111 6.665 17.8358C6.88978 18.0606 7.00139 18.3375 6.99984 18.6665V20.9998H20.9998V18.6665C20.9998 18.336 21.1118 18.0591 21.3358 17.8358C21.5598 17.6126 21.8367 17.5006 22.1665 17.4998C22.4963 17.4991 22.7736 17.6111 22.9983 17.8358C23.2231 18.0606 23.3347 18.3375 23.3332 18.6665V20.9998C23.3332 21.6415 23.1049 22.191 22.6483 22.6483C22.1918 23.1057 21.6423 23.334 20.9998 23.3332H6.99984Z" fill="#022740"/>
</svg>
