<svg width="20" height="20" viewBox="0 0 20 20" fill="none" xmlns="http://www.w3.org/2000/svg">
<path fill-rule="evenodd" clip-rule="evenodd" d="M16.5001 8.48318C16.2418 5.83318 14.6751 1.6665 9.83345 1.6665C4.99177 1.6665 3.42509 5.83318 3.16677 8.48318C2.26052 8.82713 1.66274 9.69721 1.66677 10.6665V11.8332C1.66677 13.1219 2.71146 14.1665 4.00009 14.1665C5.28876 14.1665 6.33345 13.1218 6.33345 11.8332V10.6665C6.32923 9.71811 5.75345 8.86592 4.87509 8.50818C5.04177 6.97482 5.85845 3.33318 9.83345 3.33318C13.8084 3.33318 14.6168 6.97482 14.7834 8.50818C13.9069 8.8667 13.334 9.71947 13.3334 10.6665V11.8332C13.3352 12.2722 13.4604 12.7019 13.6947 13.0733C13.929 13.4446 14.2629 13.7426 14.6584 13.9332C14.3084 14.5915 13.4168 15.4832 11.2251 15.7498C10.787 15.0846 9.93939 14.8223 9.20212 15.1239C8.46489 15.4255 8.04407 16.2066 8.19782 16.9882C8.35157 17.7697 9.03689 18.3332 9.83345 18.3332C10.1421 18.3315 10.4442 18.2441 10.7061 18.0807C10.968 17.9174 11.1794 17.6846 11.3168 17.4082C14.8918 16.9998 16.0334 15.1582 16.3918 14.0748C17.3612 13.7608 18.0132 12.8521 18.0001 11.8332V10.6665C18.0041 9.69721 17.4063 8.82713 16.5001 8.48318ZM4.66677 11.8332C4.66677 12.2013 4.36829 12.4998 4.00009 12.4998C3.63189 12.4998 3.33345 12.2014 3.33345 11.8332V10.6665C3.33277 10.5785 3.34952 10.4913 3.38272 10.4098C3.41592 10.3283 3.46492 10.2542 3.52689 10.1918C3.58887 10.1293 3.66259 10.0798 3.7438 10.046C3.82502 10.0121 3.91213 9.99472 4.00011 9.99472C4.08809 9.99472 4.1752 10.0121 4.25641 10.046C4.33763 10.0798 4.41135 10.1293 4.47332 10.1918C4.53529 10.2542 4.58429 10.3283 4.61749 10.4098C4.6507 10.4913 4.66744 10.5785 4.66677 10.6665V11.8332ZM15.0001 10.6665C15.0001 10.2983 15.2986 9.99982 15.6668 9.99982C16.035 9.99982 16.3334 10.2983 16.3334 10.6665V11.8332C16.3334 12.2013 16.035 12.4998 15.6668 12.4998C15.2986 12.4998 15.0001 12.2014 15.0001 11.8332V10.6665Z" fill="#C69C3F"/>
</svg>
