<svg width="26" height="26" viewBox="0 0 26 26" fill="none" xmlns="http://www.w3.org/2000/svg">
<path d="M12.9892 2.16666C7.00925 2.16666 2.16675 7.01999 2.16675 13C2.16675 18.98 7.00925 23.8333 12.9892 23.8333C18.9801 23.8333 23.8334 18.98 23.8334 13C23.8334 7.01999 18.9801 2.16666 12.9892 2.16666ZM20.4967 8.66666H17.3009C16.9613 7.32507 16.4593 6.02994 15.8059 4.80999C17.782 5.49033 19.4472 6.85936 20.4967 8.66666ZM13.0001 4.37666C13.8992 5.67666 14.6034 7.11749 15.0692 8.66666H10.9309C11.3967 7.11749 12.1009 5.67666 13.0001 4.37666ZM4.61508 15.1667C4.44175 14.4733 4.33341 13.7475 4.33341 13C4.33341 12.2525 4.44175 11.5267 4.61508 10.8333H8.27675C8.19008 11.5483 8.12508 12.2633 8.12508 13C8.12508 13.7367 8.19008 14.4517 8.27675 15.1667H4.61508ZM5.50341 17.3333H8.69925C9.04591 18.6875 9.54425 19.9875 10.1942 21.19C8.21668 20.5122 6.55072 19.1425 5.50341 17.3333ZM8.69925 8.66666H5.50341C6.55072 6.85744 8.21668 5.48774 10.1942 4.80999C9.54087 6.02994 9.03883 7.32507 8.69925 8.66666ZM13.0001 21.6233C12.1009 20.3233 11.3967 18.8825 10.9309 17.3333H15.0692C14.6034 18.8825 13.8992 20.3233 13.0001 21.6233ZM15.5351 15.1667H10.4651C10.3676 14.4517 10.2917 13.7367 10.2917 13C10.2917 12.2633 10.3676 11.5375 10.4651 10.8333H15.5351C15.6326 11.5375 15.7084 12.2633 15.7084 13C15.7084 13.7367 15.6326 14.4517 15.5351 15.1667ZM15.8059 21.19C16.4559 19.9875 16.9542 18.6875 17.3009 17.3333H20.4967C19.4472 19.1406 17.782 20.5097 15.8059 21.19ZM17.7234 15.1667C17.8101 14.4517 17.8751 13.7367 17.8751 13C17.8751 12.2633 17.8101 11.5483 17.7234 10.8333H21.3851C21.5584 11.5267 21.6667 12.2525 21.6667 13C21.6667 13.7475 21.5584 14.4733 21.3851 15.1667H17.7234Z" fill="#C69C3F"/>
</svg>
