<svg width="20" height="20" viewBox="0 0 20 20" fill="none" xmlns="http://www.w3.org/2000/svg">
<path d="M10.0001 16.3708C8.87425 15.5783 7.57092 15.0733 6.20425 14.9033C5.23496 14.7064 4.24743 14.6134 3.25841 14.6258C3.13187 14.6269 3.00635 14.6029 2.88912 14.5553C2.77188 14.5076 2.66525 14.4372 2.57538 14.3481C2.4855 14.259 2.41417 14.153 2.36549 14.0361C2.3168 13.9193 2.29174 13.794 2.29175 13.6675L2.30925 4.58997C2.30872 4.34641 2.40094 4.11178 2.56719 3.93377C2.73343 3.75576 2.96122 3.64773 3.20425 3.63164C4.21103 3.61163 5.217 3.7016 6.20425 3.89997C7.56943 4.0761 8.87175 4.57987 10.0001 5.36831M10.0001 16.3708V5.36831M10.0001 16.3708C11.1259 15.5783 12.4292 15.0733 13.7959 14.9033C14.7652 14.7064 15.7527 14.6134 16.7417 14.6258C16.8683 14.6269 16.9938 14.6029 17.111 14.5553C17.2283 14.5076 17.3349 14.4372 17.4248 14.3481C17.5147 14.259 17.586 14.153 17.6347 14.0361C17.6834 13.9193 17.7084 13.794 17.7084 13.6675L17.6901 4.58997C17.6906 4.34654 17.5985 4.11203 17.4324 3.93404C17.2664 3.75606 17.0388 3.64794 16.7959 3.63164C15.7891 3.61163 14.7832 3.7016 13.7959 3.89997C12.4307 4.0761 11.1284 4.57987 10.0001 5.36831" stroke="#C69C3F" stroke-width="1.5" stroke-linecap="round" stroke-linejoin="round"/>
</svg>
