<svg width="22" height="22" viewBox="0 0 22 22" fill="none" xmlns="http://www.w3.org/2000/svg">
<path d="M14.6667 14.6668L17.4167 7.3335L20.1667 14.6668C19.3692 15.2627 18.4067 15.5835 17.4167 15.5835C16.4267 15.5835 15.4642 15.2627 14.6667 14.6668Z" stroke="#C9A84C" stroke-width="1.5" stroke-linecap="round" stroke-linejoin="round"/>
<path d="M1.83325 14.6668L4.58325 7.3335L7.33325 14.6668C6.53575 15.2627 5.57325 15.5835 4.58325 15.5835C3.59325 15.5835 2.63075 15.2627 1.83325 14.6668Z" stroke="#C9A84C" stroke-width="1.5" stroke-linecap="round" stroke-linejoin="round"/>
<path d="M6.41675 19.25H15.5834" stroke="#C9A84C" stroke-width="1.5" stroke-linecap="round" stroke-linejoin="round"/>
<path d="M11 2.75V19.25" stroke="#C9A84C" stroke-width="1.5" stroke-linecap="round" stroke-linejoin="round"/>
<path d="M2.75 6.41683H4.58333C6.41667 6.41683 9.16667 5.50016 11 4.5835C12.8333 5.50016 15.5833 6.41683 17.4167 6.41683H19.25" stroke="#C9A84C" stroke-width="1.5" stroke-linecap="round" stroke-linejoin="round"/>
</svg>
