<svg width="44" height="44" viewBox="0 0 44 44" fill="none" xmlns="http://www.w3.org/2000/svg">
<rect x="0.5" y="0.5" width="43" height="43" rx="11.5" stroke="#82888E"/>
<path d="M13.1111 28.5C12.7963 28.5 12.5326 28.396 12.32 28.188C12.1074 27.98 12.0007 27.7229 12 27.4167C11.9993 27.1104 12.1059 26.8533 12.32 26.6453C12.5341 26.4373 12.7978 26.3333 13.1111 26.3333H30.8889C31.2037 26.3333 31.4678 26.4373 31.6811 26.6453C31.8944 26.8533 32.0007 27.1104 32 27.4167C31.9993 27.7229 31.8926 27.9803 31.68 28.1891C31.4674 28.3978 31.2037 28.5014 30.8889 28.5H13.1111ZM13.1111 23.0833C12.7963 23.0833 12.5326 22.9793 12.32 22.7713C12.1074 22.5633 12.0007 22.3062 12 22C11.9993 21.6938 12.1059 21.4367 12.32 21.2287C12.5341 21.0207 12.7978 20.9167 13.1111 20.9167H30.8889C31.2037 20.9167 31.4678 21.0207 31.6811 21.2287C31.8944 21.4367 32.0007 21.6938 32 22C31.9993 22.3062 31.8926 22.5637 31.68 22.7724C31.4674 22.9811 31.2037 23.0848 30.8889 23.0833H13.1111ZM13.1111 17.6667C12.7963 17.6667 12.5326 17.5627 12.32 17.3547C12.1074 17.1467 12.0007 16.8896 12 16.5833C11.9993 16.2771 12.1059 16.02 12.32 15.812C12.5341 15.604 12.7978 15.5 13.1111 15.5H30.8889C31.2037 15.5 31.4678 15.604 31.6811 15.812C31.8944 16.02 32.0007 16.2771 32 16.5833C31.9993 16.8896 31.8926 17.147 31.68 17.3557C31.4674 17.5645 31.2037 17.6681 30.8889 17.6667H13.1111Z" fill="#C69C3F"/>
</svg>
