<svg width="22" height="22" viewBox="0 0 22 22" fill="none" xmlns="http://www.w3.org/2000/svg">
<rect x="0.365782" y="0.365782" width="21.2153" height="21.2153" rx="10.6077" stroke="#368ABB" stroke-width="0.731563"/>
<path d="M15.3626 11.705H11.7048V15.3629C11.7048 15.5569 11.6277 15.743 11.4905 15.8802C11.3533 16.0174 11.1673 16.0944 10.9732 16.0944C10.7792 16.0944 10.5931 16.0174 10.4559 15.8802C10.3188 15.743 10.2417 15.5569 10.2417 15.3629V11.705H6.58386C6.38984 11.705 6.20376 11.628 6.06657 11.4908C5.92937 11.3536 5.85229 11.1675 5.85229 10.9735C5.85229 10.7795 5.92937 10.5934 6.06657 10.4562C6.20376 10.319 6.38984 10.2419 6.58386 10.2419H10.2417V6.5841C10.2417 6.39008 10.3188 6.204 10.4559 6.06681C10.5931 5.92961 10.7792 5.85254 10.9732 5.85254C11.1673 5.85254 11.3533 5.92961 11.4905 6.06681C11.6277 6.204 11.7048 6.39008 11.7048 6.5841V10.2419H15.3626C15.5566 10.2419 15.7427 10.319 15.8799 10.4562C16.0171 10.5934 16.0942 10.7795 16.0942 10.9735C16.0942 11.1675 16.0171 11.3536 15.8799 11.4908C15.7427 11.628 15.5566 11.705 15.3626 11.705Z" fill="#C7C7C7"/>
</svg>
