<svg width="23" height="23" viewBox="0 0 23 23" fill="none" xmlns="http://www.w3.org/2000/svg">
<path d="M14.9327 5.68866C14.9327 6.6316 14.5581 7.53592 13.8914 8.20267C13.2246 8.86943 12.3203 9.24401 11.3773 9.24401C10.4344 9.24401 9.53009 8.86943 8.86333 8.20267C8.19657 7.53592 7.82199 6.6316 7.82199 5.68866C7.82199 4.74572 8.19657 3.8414 8.86333 3.17464C9.53009 2.50788 10.4344 2.1333 11.3773 2.1333C12.3203 2.1333 13.2246 2.50788 13.8914 3.17464C14.5581 3.8414 14.9327 4.74572 14.9327 5.68866ZM4.26758 19.0739C4.29804 17.2083 5.06051 15.4295 6.39053 14.1211C7.72056 12.8126 9.51158 12.0793 11.3773 12.0793C13.2431 12.0793 15.0341 12.8126 16.3642 14.1211C17.6942 15.4295 18.4566 17.2083 18.4871 19.0739C16.2566 20.0966 13.8312 20.6245 11.3773 20.6212C8.84024 20.6212 6.43208 20.0675 4.26758 19.0739Z" stroke="#82888E" stroke-width="1.5" stroke-linecap="round" stroke-linejoin="round"/>
</svg>
