<svg width="26" height="26" viewBox="0 0 26 26" fill="none" xmlns="http://www.w3.org/2000/svg">
<path d="M16.25 22.75L9.75 20.475L4.7125 22.425C4.35139 22.5694 4.01736 22.529 3.71042 22.3037C3.40347 22.0783 3.25 21.7757 3.25 21.3958V6.22917C3.25 5.99444 3.31789 5.78681 3.45367 5.60625C3.58944 5.42569 3.77433 5.29028 4.00833 5.2L9.75 3.25L16.25 5.525L21.2875 3.575C21.6486 3.43056 21.9826 3.47136 22.2896 3.69742C22.5965 3.92347 22.75 4.22572 22.75 4.60417V19.7708C22.75 20.0056 22.6825 20.2132 22.5474 20.3938C22.4124 20.5743 22.2271 20.7097 21.9917 20.8L16.25 22.75ZM15.1667 20.0958V7.42083L10.8333 5.90417V18.5792L15.1667 20.0958ZM17.3333 20.0958L20.5833 19.0125V6.175L17.3333 7.42083V20.0958ZM5.41667 19.825L8.66667 18.5792V5.90417L5.41667 6.9875V19.825Z" fill="#C69C3F"/>
</svg>
