<svg width="28" height="28" viewBox="0 0 28 28" fill="none" xmlns="http://www.w3.org/2000/svg">
<path d="M8.16659 16.3332V23.3332C8.16659 23.6637 8.05459 23.941 7.83059 24.165C7.60659 24.389 7.3297 24.5006 6.99992 24.4998C6.67014 24.4991 6.39325 24.3871 6.16925 24.1638C5.94525 23.9406 5.83325 23.6637 5.83325 23.3332V5.83317C5.83325 5.50261 5.94525 5.22573 6.16925 5.0025C6.39325 4.77928 6.67014 4.66728 6.99992 4.6665H15.3708C15.643 4.6665 15.886 4.754 16.0999 4.929C16.3138 5.104 16.4499 5.32762 16.5083 5.59984L16.7999 6.99984H22.1666C22.4971 6.99984 22.7744 7.11184 22.9984 7.33584C23.2224 7.55984 23.334 7.83673 23.3333 8.1665V17.4998C23.3333 17.8304 23.2213 18.1077 22.9973 18.3317C22.7733 18.5557 22.4964 18.6673 22.1666 18.6665H16.1291C15.8569 18.6665 15.6138 18.579 15.3999 18.404C15.186 18.229 15.0499 18.0054 14.9916 17.7332L14.6999 16.3332H8.16659Z" fill="#022740"/>
</svg>
