<svg width="58" height="60" viewBox="0 0 58 60" fill="none" xmlns="http://www.w3.org/2000/svg">
<path d="M29.7438 16.6665V19.4132C23.7571 20.0798 19.0771 25.1732 19.0771 31.3332C19.0771 37.9465 24.4638 43.3332 31.0771 43.3332C37.6905 43.3332 43.0771 37.9465 43.0771 31.3332C43.0771 28.5065 42.0905 25.9065 40.4371 23.8532L42.3838 21.9065L40.5038 20.0265L38.5571 21.9732C36.7908 20.5571 34.6598 19.6696 32.4105 19.4132V16.6665H29.7438ZM40.4105 31.3332C40.4105 36.4798 36.2238 40.6665 31.0771 40.6665C25.9305 40.6665 21.7438 36.4798 21.7438 31.3332C21.7438 26.1865 25.9305 21.9998 31.0771 21.9998C36.2238 21.9998 40.4105 26.1865 40.4105 31.3332Z" fill="#C7C7C7"/>
<path d="M29.7441 24.6665H32.4108V32.6665H29.7441V24.6665Z" fill="#C7C7C7"/>
</svg>
