<svg width="28" height="28" viewBox="0 0 28 28" fill="none" xmlns="http://www.w3.org/2000/svg">
<path d="M12.25 8.75H10.5V19.25H12.25V8.75ZM17.5 8.75H15.75V19.25H17.5V8.75Z" fill="white"/>
<path d="M14 3.5C16.0767 3.5 18.1068 4.11581 19.8335 5.26957C21.5602 6.42332 22.906 8.0632 23.7007 9.98182C24.4955 11.9004 24.7034 14.0116 24.2983 16.0484C23.8931 18.0852 22.8931 19.9562 21.4246 21.4246C19.9562 22.8931 18.0853 23.8931 16.0485 24.2982C14.0117 24.7034 11.9005 24.4955 9.98183 23.7007C8.06321 22.906 6.42333 21.5602 5.26957 19.8335C4.11582 18.1068 3.50001 16.0767 3.50001 14C3.50001 11.2152 4.60625 8.54451 6.57538 6.57538C8.54452 4.60625 11.2152 3.5 14 3.5ZM14 1.75C11.5772 1.75 9.20877 2.46845 7.19427 3.8145C5.17977 5.16054 3.60965 7.07373 2.68248 9.31213C1.75531 11.5505 1.51272 14.0136 1.98539 16.3899C2.45805 18.7661 3.62475 20.9489 5.33795 22.6621C7.05114 24.3752 9.23388 25.542 11.6101 26.0146C13.9864 26.4873 16.4495 26.2447 18.6879 25.3175C20.9263 24.3904 22.8395 22.8202 24.1855 20.8057C25.5316 18.7912 26.25 16.4228 26.25 14C26.25 10.7511 24.9594 7.63526 22.6621 5.33794C20.3647 3.04062 17.2489 1.75 14 1.75Z" fill="white"/>
</svg>
