<svg width="60" height="60" viewBox="0 0 60 60" fill="none" xmlns="http://www.w3.org/2000/svg">
<rect x="0.75" y="0.75" width="58.5" height="58.5" rx="29.25" fill="#D9F2F8"/>
<rect x="0.75" y="0.75" width="58.5" height="58.5" rx="29.25" stroke="#F2FBFF" stroke-width="1.5"/>
<path d="M28.6667 16.6665V19.4132C22.68 20.0798 18 25.1732 18 31.3332C18 37.9465 23.3867 43.3332 30 43.3332C36.6133 43.3332 42 37.9465 42 31.3332C42 28.5065 41.0133 25.9065 39.36 23.8532L41.3067 21.9065L39.4267 20.0265L37.48 21.9732C35.7136 20.5571 33.5827 19.6696 31.3333 19.4132V16.6665H28.6667ZM39.3333 31.3332C39.3333 36.4798 35.1467 40.6665 30 40.6665C24.8533 40.6665 20.6667 36.4798 20.6667 31.3332C20.6667 26.1865 24.8533 21.9998 30 21.9998C35.1467 21.9998 39.3333 26.1865 39.3333 31.3332Z" fill="#2DA8F0"/>
<path d="M28.667 24.6665H31.3337V32.6665H28.667V24.6665Z" fill="#2DA8F0"/>
</svg>
