<svg width="38" height="66" viewBox="0 0 38 66" fill="none" xmlns="http://www.w3.org/2000/svg">
<mask id="path-1-inside-1_22_90" fill="white">
<path d="M0 0H38V66H0V0Z"/>
</mask>
<path d="M38 0H37.5V66H38H38.5V0H38Z" fill="#E6E7E8" mask="url(#path-1-inside-1_22_90)"/>
<path d="M15.5556 18.5555V21.5311C9.07 22.2533 4 27.7711 4 34.4444C4 41.6089 9.83556 47.4444 17 47.4444C24.1644 47.4444 30 41.6089 30 34.4444C30 31.3822 28.9311 28.5655 27.14 26.3411L29.2489 24.2322L27.2122 22.1955L25.1033 24.3044C23.1898 22.7704 20.8812 21.8089 18.4444 21.5311V18.5555H15.5556ZM27.1111 34.4444C27.1111 40.02 22.5756 44.5555 17 44.5555C11.4244 44.5555 6.88889 40.02 6.88889 34.4444C6.88889 28.8689 11.4244 24.3333 17 24.3333C22.5756 24.3333 27.1111 28.8689 27.1111 34.4444Z" fill="#C69C3F"/>
<path d="M15.5554 27.2222H18.4443V35.8888H15.5554V27.2222Z" fill="#C69C3F"/>
</svg>
