<svg width="18" height="18" viewBox="0 0 18 18" fill="none" xmlns="http://www.w3.org/2000/svg">
<path d="M8.56161 17.1233C13.2901 17.1233 17.1232 13.2902 17.1232 8.56167C17.1232 3.83319 13.2901 0 8.56161 0C3.83313 0 0 3.83319 0 8.56167C0 13.2902 3.83313 17.1233 8.56161 17.1233Z" fill="#BABABA" fill-opacity="0.5"/>
<path d="M4.96413 8.54926C5.27248 8.3353 5.68304 8.42445 5.88737 8.74935C6.02482 8.96726 6.16968 9.1832 6.322 9.39517C6.39445 9.49621 6.46879 9.59722 6.54494 9.69826L6.78267 10.0093C6.94242 10.2232 7.0799 10.4114 7.22293 10.566C7.29352 10.6432 7.36408 10.7066 7.42909 10.7581C7.49411 10.8096 7.55167 10.8354 7.59625 10.8532C7.6074 10.8532 7.61853 10.8651 7.62782 10.8631C7.63711 10.8631 7.64828 10.8651 7.65757 10.8691C7.67614 10.8651 7.70401 10.8691 7.70772 10.8691C7.71144 10.8691 7.70954 10.8691 7.71326 10.873C7.71326 10.873 7.71512 10.873 7.71698 10.873H7.72069L7.72632 10.8691C7.73189 10.8631 7.7412 10.8611 7.75235 10.8473L7.76904 10.8295C7.76904 10.8295 7.78206 10.8116 7.78763 10.8037C7.83964 10.7344 7.89902 10.6294 7.95661 10.5184C8.01419 10.4095 8.07362 10.2906 8.1312 10.1737C8.25009 9.93797 8.37091 9.70025 8.49537 9.4645C8.74799 8.99301 9.00801 8.53341 9.29036 8.07975C9.5727 7.62807 9.87367 7.18826 10.2136 6.78017C10.5517 6.37207 10.9269 5.99766 11.3374 5.67871C11.746 5.35976 12.1919 5.09825 12.6562 4.90015C12.216 5.1557 11.811 5.46674 11.4507 5.82531C11.0903 6.18388 10.7727 6.58603 10.494 7.01394C10.2154 7.44185 9.97583 7.89946 9.75293 8.36699C9.53188 8.83452 9.32749 9.31591 9.13617 9.79929C9.04143 10.041 8.95046 10.2847 8.85944 10.5323C8.813 10.6571 8.76837 10.7799 8.71822 10.9107C8.66806 11.0394 8.6161 11.1742 8.53065 11.3267C8.5195 11.3465 8.51018 11.3643 8.49718 11.3841L8.45627 11.4456C8.43213 11.4852 8.39502 11.5288 8.35787 11.5724L8.33002 11.604L8.29655 11.6357C8.27426 11.6555 8.25013 11.6754 8.22599 11.6952C8.17583 11.7308 8.12009 11.7665 8.06808 11.7922C7.95662 11.8457 7.85823 11.8655 7.75607 11.8873C7.70406 11.8933 7.65198 11.8953 7.59997 11.8992C7.5461 11.9032 7.49779 11.8933 7.44578 11.8893C7.24517 11.8636 7.06315 11.7922 6.91455 11.709C6.76595 11.6238 6.63218 11.5288 6.51701 11.4297C6.28482 11.2336 6.09163 11.0216 5.91703 10.8393L5.64955 10.562C5.55853 10.4649 5.4657 10.3679 5.37654 10.2688C5.18707 10.0608 4.99946 9.84487 4.81928 9.61903C4.55365 9.29018 4.62052 8.78699 4.96231 8.54926H4.96413Z" fill="#E3D99B"/>
</svg>
