<svg width="20" height="20" viewBox="0 0 20 20" fill="none" xmlns="http://www.w3.org/2000/svg">
<path fill-rule="evenodd" clip-rule="evenodd" d="M18.3333 9.99984C18.3333 14.6023 14.6025 18.3332 9.99996 18.3332C5.39746 18.3332 1.66663 14.6023 1.66663 9.99984C1.66663 5.39734 5.39746 1.6665 9.99996 1.6665C14.6025 1.6665 18.3333 5.39734 18.3333 9.99984ZM9.99996 16.6665C11.7681 16.6665 13.4638 15.9641 14.714 14.7139C15.9642 13.4636 16.6666 11.7679 16.6666 9.99984C16.6666 8.23173 15.9642 6.53604 14.714 5.28579C13.4638 4.03555 11.7681 3.33317 9.99996 3.33317C8.23185 3.33317 6.53616 4.03555 5.28591 5.28579C4.03567 6.53604 3.33329 8.23173 3.33329 9.99984C3.33329 11.7679 4.03567 13.4636 5.28591 14.7139C6.53616 15.9641 8.23185 16.6665 9.99996 16.6665Z" fill="#C69C3F"/>
<path fill-rule="evenodd" clip-rule="evenodd" d="M9.99996 11.6663C9.77895 11.6663 9.56698 11.5785 9.4107 11.4223C9.25442 11.266 9.16663 11.054 9.16663 10.833V6.66634C9.16663 6.44533 9.25442 6.23337 9.4107 6.07709C9.56698 5.92081 9.77895 5.83301 9.99996 5.83301C10.221 5.83301 10.4329 5.92081 10.5892 6.07709C10.7455 6.23337 10.8333 6.44533 10.8333 6.66634V10.833C10.8333 11.054 10.7455 11.266 10.5892 11.4223C10.4329 11.5785 10.221 11.6663 9.99996 11.6663Z" fill="#C69C3F"/>
<path d="M9.16663 13.3333C9.16663 13.1123 9.25442 12.9004 9.4107 12.7441C9.56698 12.5878 9.77895 12.5 9.99996 12.5C10.221 12.5 10.4329 12.5878 10.5892 12.7441C10.7455 12.9004 10.8333 13.1123 10.8333 13.3333C10.8333 13.5543 10.7455 13.7663 10.5892 13.9226C10.4329 14.0789 10.221 14.1667 9.99996 14.1667C9.77895 14.1667 9.56698 14.0789 9.4107 13.9226C9.25442 13.7663 9.16663 13.5543 9.16663 13.3333Z" fill="#C69C3F"/>
</svg>
