<svg width="24" height="24" viewBox="0 0 24 24" fill="none" xmlns="http://www.w3.org/2000/svg">
<rect x="0.243854" y="0.243854" width="23.5123" height="23.5123" rx="11.7561" stroke="#368ABB" stroke-width="0.487709"/>
<path d="M10.5834 12.7502C10.1945 12.3613 10 11.8891 10 11.3335V7.3335C10 6.77794 10.1945 6.30572 10.5834 5.91683C10.9723 5.52794 11.4445 5.3335 12 5.3335C12.5556 5.3335 13.0278 5.52794 13.4167 5.91683C13.8056 6.30572 14 6.77794 14 7.3335V11.3335C14 11.8891 13.8056 12.3613 13.4167 12.7502C13.0278 13.1391 12.5556 13.3335 12 13.3335C11.4445 13.3335 10.9723 13.1391 10.5834 12.7502ZM11.3334 18.0002V15.9502C10.1778 15.7946 9.22226 15.2779 8.46671 14.4002C7.71115 13.5224 7.33337 12.5002 7.33337 11.3335H8.66671C8.66671 12.2557 8.99182 13.0419 9.64204 13.6922C10.2923 14.3424 11.0783 14.6673 12 14.6668C12.9218 14.6664 13.708 14.3413 14.3587 13.6915C15.0094 13.0417 15.3343 12.2557 15.3334 11.3335H16.6667C16.6667 12.5002 16.2889 13.5224 15.5334 14.4002C14.7778 15.2779 13.8223 15.7946 12.6667 15.9502V18.0002H11.3334Z" fill="#C7C7C7"/>
</svg>
