<svg width="24" height="24" viewBox="0 0 24 24" fill="none" xmlns="http://www.w3.org/2000/svg">
<path d="M20.1015 1.58724C20.1886 1.54113 20.2839 1.51261 20.3819 1.50333C20.48 1.49405 20.579 1.50419 20.6731 1.53317C20.7673 1.56214 20.8548 1.60938 20.9307 1.6722C21.0066 1.73501 21.0694 1.81216 21.1155 1.89924C22.0256 3.62587 22.5009 5.54843 22.5 7.50024C22.5009 9.45206 22.0256 11.3746 21.1155 13.1012C21.0694 13.1883 21.0066 13.2654 20.9307 13.3282C20.8548 13.391 20.7673 13.4383 20.6731 13.4673C20.579 13.4962 20.48 13.5064 20.3819 13.4971C20.2839 13.4878 20.1886 13.4593 20.1015 13.4132C20.0144 13.3672 19.9373 13.3044 19.8745 13.2285C19.8117 13.1525 19.7645 13.065 19.7355 12.9709C19.7065 12.8767 19.6964 12.7778 19.7056 12.6797C19.7149 12.5816 19.7434 12.4863 19.7895 12.3992C20.5852 10.8889 21.0007 9.20737 21 7.50024C21 5.73024 20.562 4.06224 19.7895 2.60124C19.7434 2.51418 19.7149 2.41889 19.7056 2.3208C19.6963 2.22272 19.7064 2.12377 19.7354 2.0296C19.7644 1.93544 19.8116 1.84791 19.8745 1.772C19.9373 1.6961 20.0144 1.63332 20.1015 1.58724ZM7.5 7.50024C7.5 6.70459 7.81607 5.94153 8.37868 5.37892C8.94129 4.81631 9.70435 4.50024 10.5 4.50024C11.2956 4.50024 12.0587 4.81631 12.6213 5.37892C13.1839 5.94153 13.5 6.70459 13.5 7.50024C13.5 8.29589 13.1839 9.05896 12.6213 9.62156C12.0587 10.1842 11.2956 10.5002 10.5 10.5002C9.70435 10.5002 8.94129 10.1842 8.37868 9.62156C7.81607 9.05896 7.5 8.29589 7.5 7.50024ZM10.5 3.00024C9.30653 3.00024 8.16193 3.47435 7.31802 4.31826C6.47411 5.16218 6 6.30677 6 7.50024C6 8.69372 6.47411 9.83831 7.31802 10.6822C8.16193 11.5261 9.30653 12.0002 10.5 12.0002C11.6935 12.0002 12.8381 11.5261 13.682 10.6822C14.5259 9.83831 15 8.69372 15 7.50024C15 6.30677 14.5259 5.16218 13.682 4.31826C12.8381 3.47435 11.6935 3.00024 10.5 3.00024ZM18 15.7502C18 15.1535 17.7629 14.5812 17.341 14.1593C16.919 13.7373 16.3467 13.5002 15.75 13.5002H5.25C4.65326 13.5002 4.08097 13.7373 3.65901 14.1593C3.23705 14.5812 3 15.1535 3 15.7502V16.5002C3 19.4567 5.79 22.5002 10.5 22.5002C15.21 22.5002 18 19.4567 18 16.5002V15.7502ZM4.5 15.7502C4.5 15.5513 4.57902 15.3606 4.71967 15.2199C4.86032 15.0793 5.05109 15.0002 5.25 15.0002H15.75C15.9489 15.0002 16.1397 15.0793 16.2803 15.2199C16.421 15.3606 16.5 15.5513 16.5 15.7502V16.5002C16.5 18.6572 14.352 21.0002 10.5 21.0002C6.648 21.0002 4.5 18.6572 4.5 16.5002V15.7502ZM17.925 3.89574C17.8819 3.8071 17.8217 3.72782 17.7479 3.66244C17.6741 3.59705 17.5882 3.54684 17.495 3.51466C17.4018 3.48249 17.3032 3.46898 17.2048 3.47491C17.1064 3.48085 17.0101 3.5061 16.9215 3.54924C16.8329 3.59238 16.7536 3.65256 16.6882 3.72634C16.6228 3.80011 16.5726 3.88605 16.5404 3.97923C16.5082 4.07241 16.4947 4.17102 16.5007 4.26943C16.5066 4.36783 16.5319 4.4641 16.575 4.55274C17.0085 5.44224 17.25 6.44274 17.25 7.50024C17.2508 8.52115 17.02 9.52893 16.575 10.4477C16.5319 10.5364 16.5066 10.6327 16.5007 10.7311C16.4947 10.8295 16.5082 10.9281 16.5404 11.0213C16.5726 11.1144 16.6228 11.2004 16.6882 11.2742C16.7536 11.3479 16.8329 11.4081 16.9215 11.4512C17.0101 11.4944 17.1064 11.5196 17.2048 11.5256C17.3032 11.5315 17.4018 11.518 17.495 11.4858C17.5882 11.4537 17.6741 11.4034 17.7479 11.338C17.8217 11.2727 17.8819 11.1934 17.925 11.1047C18.4692 9.98114 18.7513 8.74869 18.75 7.50024C18.75 6.21024 18.4545 4.98624 17.925 3.89574Z" fill="#C69C3F"/>
</svg>
